<mxfile host="Electron" modified="2024-12-19T00:59:47.736Z" agent="Mozilla/5.0 (Windows NT 10.0; Win64; x64) AppleWebKit/537.36 (KHTML, like Gecko) draw.io/22.1.16 Chrome/120.0.6099.109 Electron/28.1.0 Safari/537.36" etag="v_xS3InRKijQypuZL56d" version="22.1.16" type="device">
  <diagram name="Strona-1" id="g4nWCdf57Gnb7oqiX9_U">
    <mxGraphModel dx="335" dy="193" grid="1" gridSize="10" guides="1" tooltips="1" connect="1" arrows="1" fold="1" page="1" pageScale="1" pageWidth="827" pageHeight="1169" math="0" shadow="0">
      <root>
        <mxCell id="0" />
        <mxCell id="1" parent="0" />
        <mxCell id="iTxVIf8KStA0Y9HTmnBT-1" value="" style="whiteSpace=wrap;html=1;aspect=fixed;" vertex="1" parent="1">
          <mxGeometry x="80" y="240" width="80" height="80" as="geometry" />
        </mxCell>
        <mxCell id="iTxVIf8KStA0Y9HTmnBT-39" value="" style="shape=umlActor;verticalLabelPosition=bottom;verticalAlign=top;html=1;outlineConnect=0;" vertex="1" parent="1">
          <mxGeometry x="85" y="255" width="20" height="50" as="geometry" />
        </mxCell>
        <mxCell id="iTxVIf8KStA0Y9HTmnBT-42" value="" style="shape=umlActor;verticalLabelPosition=bottom;verticalAlign=top;html=1;outlineConnect=0;" vertex="1" parent="1">
          <mxGeometry x="100" y="260" width="20" height="40" as="geometry" />
        </mxCell>
        <mxCell id="iTxVIf8KStA0Y9HTmnBT-44" value="" style="verticalLabelPosition=bottom;outlineConnect=0;align=center;dashed=0;html=1;verticalAlign=top;shape=mxgraph.pid.misc.tank_car,_tank_wagon;" vertex="1" parent="1">
          <mxGeometry x="120" y="267.5" width="40" height="25" as="geometry" />
        </mxCell>
        <mxCell id="iTxVIf8KStA0Y9HTmnBT-38" value="" style="group;strokeWidth=0.5;opacity=40;" vertex="1" connectable="0" parent="1">
          <mxGeometry x="79.99511627906986" y="240" width="80.00488372093014" height="80" as="geometry" />
        </mxCell>
        <mxCell id="iTxVIf8KStA0Y9HTmnBT-24" value="" style="endArrow=none;html=1;rounded=0;fillColor=#f5f5f5;strokeColor=#CCCCCC;opacity=60;" edge="1" parent="iTxVIf8KStA0Y9HTmnBT-38">
          <mxGeometry width="50" height="50" relative="1" as="geometry">
            <mxPoint x="80.00488372093014" y="10" as="sourcePoint" />
            <mxPoint y="10" as="targetPoint" />
          </mxGeometry>
        </mxCell>
        <mxCell id="iTxVIf8KStA0Y9HTmnBT-25" value="" style="endArrow=none;html=1;rounded=0;fillColor=#f5f5f5;strokeColor=#CCCCCC;opacity=60;" edge="1" parent="iTxVIf8KStA0Y9HTmnBT-38">
          <mxGeometry width="50" height="50" relative="1" as="geometry">
            <mxPoint x="70.00488372093014" y="80" as="sourcePoint" />
            <mxPoint x="70.00488372093014" as="targetPoint" />
          </mxGeometry>
        </mxCell>
        <mxCell id="iTxVIf8KStA0Y9HTmnBT-26" value="" style="endArrow=none;html=1;rounded=0;fillColor=#f5f5f5;strokeColor=#CCCCCC;strokeWidth=1;opacity=60;" edge="1" parent="iTxVIf8KStA0Y9HTmnBT-38">
          <mxGeometry width="50" height="50" relative="1" as="geometry">
            <mxPoint x="60.00488372093014" y="80" as="sourcePoint" />
            <mxPoint x="60.00488372093014" as="targetPoint" />
          </mxGeometry>
        </mxCell>
        <mxCell id="iTxVIf8KStA0Y9HTmnBT-27" value="" style="endArrow=none;html=1;rounded=0;fillColor=#f5f5f5;strokeColor=#CCCCCC;opacity=60;" edge="1" parent="iTxVIf8KStA0Y9HTmnBT-38">
          <mxGeometry width="50" height="50" relative="1" as="geometry">
            <mxPoint x="50.00488372093014" y="80" as="sourcePoint" />
            <mxPoint x="50.00488372093014" as="targetPoint" />
          </mxGeometry>
        </mxCell>
        <mxCell id="iTxVIf8KStA0Y9HTmnBT-28" value="" style="endArrow=none;html=1;rounded=0;fillColor=#f5f5f5;strokeColor=#CCCCCC;opacity=60;" edge="1" parent="iTxVIf8KStA0Y9HTmnBT-38">
          <mxGeometry width="50" height="50" relative="1" as="geometry">
            <mxPoint x="39.884883720930134" y="80" as="sourcePoint" />
            <mxPoint x="39.884883720930134" as="targetPoint" />
          </mxGeometry>
        </mxCell>
        <mxCell id="iTxVIf8KStA0Y9HTmnBT-29" value="" style="endArrow=none;html=1;rounded=0;fillColor=#f5f5f5;strokeColor=#CCCCCC;opacity=60;" edge="1" parent="iTxVIf8KStA0Y9HTmnBT-38">
          <mxGeometry width="50" height="50" relative="1" as="geometry">
            <mxPoint x="30.00488372093014" y="80" as="sourcePoint" />
            <mxPoint x="30.00488372093014" as="targetPoint" />
          </mxGeometry>
        </mxCell>
        <mxCell id="iTxVIf8KStA0Y9HTmnBT-30" value="" style="endArrow=none;html=1;rounded=0;fillColor=#f5f5f5;strokeColor=#CCCCCC;opacity=60;" edge="1" parent="iTxVIf8KStA0Y9HTmnBT-38">
          <mxGeometry width="50" height="50" relative="1" as="geometry">
            <mxPoint x="20.00488372093014" y="80" as="sourcePoint" />
            <mxPoint x="20.00488372093014" as="targetPoint" />
          </mxGeometry>
        </mxCell>
        <mxCell id="iTxVIf8KStA0Y9HTmnBT-31" value="" style="endArrow=none;html=1;rounded=0;fillColor=#f5f5f5;strokeColor=#CCCCCC;opacity=60;" edge="1" parent="iTxVIf8KStA0Y9HTmnBT-38">
          <mxGeometry width="50" height="50" relative="1" as="geometry">
            <mxPoint x="10.004883720930138" y="80" as="sourcePoint" />
            <mxPoint x="10.004883720930138" as="targetPoint" />
          </mxGeometry>
        </mxCell>
        <mxCell id="iTxVIf8KStA0Y9HTmnBT-32" value="" style="endArrow=none;html=1;rounded=0;fillColor=#f5f5f5;strokeColor=#CCCCCC;opacity=60;" edge="1" parent="iTxVIf8KStA0Y9HTmnBT-38">
          <mxGeometry width="50" height="50" relative="1" as="geometry">
            <mxPoint x="80.00488372093014" y="20" as="sourcePoint" />
            <mxPoint y="20" as="targetPoint" />
          </mxGeometry>
        </mxCell>
        <mxCell id="iTxVIf8KStA0Y9HTmnBT-33" value="" style="endArrow=none;html=1;rounded=0;fillColor=#f5f5f5;strokeColor=#CCCCCC;opacity=60;" edge="1" parent="iTxVIf8KStA0Y9HTmnBT-38">
          <mxGeometry width="50" height="50" relative="1" as="geometry">
            <mxPoint x="80.00488372093014" y="30" as="sourcePoint" />
            <mxPoint y="30" as="targetPoint" />
          </mxGeometry>
        </mxCell>
        <mxCell id="iTxVIf8KStA0Y9HTmnBT-34" value="" style="endArrow=none;html=1;rounded=0;fillColor=#f5f5f5;strokeColor=#CCCCCC;opacity=60;" edge="1" parent="iTxVIf8KStA0Y9HTmnBT-38">
          <mxGeometry width="50" height="50" relative="1" as="geometry">
            <mxPoint x="80.00488372093014" y="40" as="sourcePoint" />
            <mxPoint y="40" as="targetPoint" />
          </mxGeometry>
        </mxCell>
        <mxCell id="iTxVIf8KStA0Y9HTmnBT-35" value="" style="endArrow=none;html=1;rounded=0;fillColor=#f5f5f5;strokeColor=#CCCCCC;opacity=60;" edge="1" parent="iTxVIf8KStA0Y9HTmnBT-38">
          <mxGeometry width="50" height="50" relative="1" as="geometry">
            <mxPoint x="80.00488372093014" y="50" as="sourcePoint" />
            <mxPoint y="50" as="targetPoint" />
          </mxGeometry>
        </mxCell>
        <mxCell id="iTxVIf8KStA0Y9HTmnBT-36" value="" style="endArrow=none;html=1;rounded=0;fillColor=#f5f5f5;strokeColor=#CCCCCC;opacity=60;" edge="1" parent="iTxVIf8KStA0Y9HTmnBT-38">
          <mxGeometry width="50" height="50" relative="1" as="geometry">
            <mxPoint x="80.00488372093014" y="60" as="sourcePoint" />
            <mxPoint y="60" as="targetPoint" />
          </mxGeometry>
        </mxCell>
        <mxCell id="iTxVIf8KStA0Y9HTmnBT-37" value="" style="endArrow=none;html=1;rounded=0;fillColor=#f5f5f5;strokeColor=#CCCCCC;opacity=60;" edge="1" parent="iTxVIf8KStA0Y9HTmnBT-38">
          <mxGeometry width="50" height="50" relative="1" as="geometry">
            <mxPoint x="80.00488372093014" y="70" as="sourcePoint" />
            <mxPoint y="70" as="targetPoint" />
          </mxGeometry>
        </mxCell>
        <mxCell id="iTxVIf8KStA0Y9HTmnBT-45" value="" style="whiteSpace=wrap;html=1;aspect=fixed;" vertex="1" parent="1">
          <mxGeometry x="170" y="240" width="80" height="80" as="geometry" />
        </mxCell>
        <mxCell id="iTxVIf8KStA0Y9HTmnBT-46" value="" style="shape=umlActor;verticalLabelPosition=bottom;verticalAlign=top;html=1;outlineConnect=0;" vertex="1" parent="1">
          <mxGeometry x="175" y="255" width="20" height="50" as="geometry" />
        </mxCell>
        <mxCell id="iTxVIf8KStA0Y9HTmnBT-47" value="" style="shape=umlActor;verticalLabelPosition=bottom;verticalAlign=top;html=1;outlineConnect=0;" vertex="1" parent="1">
          <mxGeometry x="190" y="260" width="20" height="40" as="geometry" />
        </mxCell>
        <mxCell id="iTxVIf8KStA0Y9HTmnBT-48" value="" style="verticalLabelPosition=bottom;outlineConnect=0;align=center;dashed=0;html=1;verticalAlign=top;shape=mxgraph.pid.misc.tank_car,_tank_wagon;" vertex="1" parent="1">
          <mxGeometry x="210" y="267.5" width="40" height="25" as="geometry" />
        </mxCell>
        <mxCell id="iTxVIf8KStA0Y9HTmnBT-49" value="" style="group;strokeWidth=0.5;opacity=40;" vertex="1" connectable="0" parent="1">
          <mxGeometry x="169.99511627906986" y="240" width="80.00488372093014" height="80" as="geometry" />
        </mxCell>
        <mxCell id="iTxVIf8KStA0Y9HTmnBT-50" value="" style="endArrow=none;html=1;rounded=0;fillColor=#f5f5f5;strokeColor=#CCCCCC;opacity=60;" edge="1" parent="iTxVIf8KStA0Y9HTmnBT-49">
          <mxGeometry width="50" height="50" relative="1" as="geometry">
            <mxPoint x="80.00488372093014" y="10" as="sourcePoint" />
            <mxPoint y="10" as="targetPoint" />
          </mxGeometry>
        </mxCell>
        <mxCell id="iTxVIf8KStA0Y9HTmnBT-51" value="" style="endArrow=none;html=1;rounded=0;fillColor=#f5f5f5;strokeColor=#CCCCCC;opacity=60;" edge="1" parent="iTxVIf8KStA0Y9HTmnBT-49">
          <mxGeometry width="50" height="50" relative="1" as="geometry">
            <mxPoint x="70.00488372093014" y="80" as="sourcePoint" />
            <mxPoint x="70.00488372093014" as="targetPoint" />
          </mxGeometry>
        </mxCell>
        <mxCell id="iTxVIf8KStA0Y9HTmnBT-52" value="" style="endArrow=none;html=1;rounded=0;fillColor=#f5f5f5;strokeColor=#CCCCCC;strokeWidth=1;opacity=60;" edge="1" parent="iTxVIf8KStA0Y9HTmnBT-49">
          <mxGeometry width="50" height="50" relative="1" as="geometry">
            <mxPoint x="60.00488372093014" y="80" as="sourcePoint" />
            <mxPoint x="60.00488372093014" as="targetPoint" />
          </mxGeometry>
        </mxCell>
        <mxCell id="iTxVIf8KStA0Y9HTmnBT-53" value="" style="endArrow=none;html=1;rounded=0;fillColor=#f5f5f5;strokeColor=#CCCCCC;opacity=60;" edge="1" parent="iTxVIf8KStA0Y9HTmnBT-49">
          <mxGeometry width="50" height="50" relative="1" as="geometry">
            <mxPoint x="50.00488372093014" y="80" as="sourcePoint" />
            <mxPoint x="50.00488372093014" as="targetPoint" />
          </mxGeometry>
        </mxCell>
        <mxCell id="iTxVIf8KStA0Y9HTmnBT-54" value="" style="endArrow=none;html=1;rounded=0;fillColor=#f5f5f5;strokeColor=#CCCCCC;opacity=60;" edge="1" parent="iTxVIf8KStA0Y9HTmnBT-49">
          <mxGeometry width="50" height="50" relative="1" as="geometry">
            <mxPoint x="39.884883720930134" y="80" as="sourcePoint" />
            <mxPoint x="39.884883720930134" as="targetPoint" />
          </mxGeometry>
        </mxCell>
        <mxCell id="iTxVIf8KStA0Y9HTmnBT-55" value="" style="endArrow=none;html=1;rounded=0;fillColor=#f5f5f5;strokeColor=#CCCCCC;opacity=60;" edge="1" parent="iTxVIf8KStA0Y9HTmnBT-49">
          <mxGeometry width="50" height="50" relative="1" as="geometry">
            <mxPoint x="30.00488372093014" y="80" as="sourcePoint" />
            <mxPoint x="30.00488372093014" as="targetPoint" />
          </mxGeometry>
        </mxCell>
        <mxCell id="iTxVIf8KStA0Y9HTmnBT-56" value="" style="endArrow=none;html=1;rounded=0;fillColor=#f5f5f5;strokeColor=#CCCCCC;opacity=60;" edge="1" parent="iTxVIf8KStA0Y9HTmnBT-49">
          <mxGeometry width="50" height="50" relative="1" as="geometry">
            <mxPoint x="20.00488372093014" y="80" as="sourcePoint" />
            <mxPoint x="20.00488372093014" as="targetPoint" />
          </mxGeometry>
        </mxCell>
        <mxCell id="iTxVIf8KStA0Y9HTmnBT-57" value="" style="endArrow=none;html=1;rounded=0;fillColor=#f5f5f5;strokeColor=#CCCCCC;opacity=60;" edge="1" parent="iTxVIf8KStA0Y9HTmnBT-49">
          <mxGeometry width="50" height="50" relative="1" as="geometry">
            <mxPoint x="10.004883720930138" y="80" as="sourcePoint" />
            <mxPoint x="10.004883720930138" as="targetPoint" />
          </mxGeometry>
        </mxCell>
        <mxCell id="iTxVIf8KStA0Y9HTmnBT-58" value="" style="endArrow=none;html=1;rounded=0;fillColor=#f5f5f5;strokeColor=#CCCCCC;opacity=60;" edge="1" parent="iTxVIf8KStA0Y9HTmnBT-49">
          <mxGeometry width="50" height="50" relative="1" as="geometry">
            <mxPoint x="80.00488372093014" y="20" as="sourcePoint" />
            <mxPoint y="20" as="targetPoint" />
          </mxGeometry>
        </mxCell>
        <mxCell id="iTxVIf8KStA0Y9HTmnBT-59" value="" style="endArrow=none;html=1;rounded=0;fillColor=#f5f5f5;strokeColor=#CCCCCC;opacity=60;" edge="1" parent="iTxVIf8KStA0Y9HTmnBT-49">
          <mxGeometry width="50" height="50" relative="1" as="geometry">
            <mxPoint x="80.00488372093014" y="30" as="sourcePoint" />
            <mxPoint y="30" as="targetPoint" />
          </mxGeometry>
        </mxCell>
        <mxCell id="iTxVIf8KStA0Y9HTmnBT-60" value="" style="endArrow=none;html=1;rounded=0;fillColor=#f5f5f5;strokeColor=#CCCCCC;opacity=60;" edge="1" parent="iTxVIf8KStA0Y9HTmnBT-49">
          <mxGeometry width="50" height="50" relative="1" as="geometry">
            <mxPoint x="80.00488372093014" y="40" as="sourcePoint" />
            <mxPoint y="40" as="targetPoint" />
          </mxGeometry>
        </mxCell>
        <mxCell id="iTxVIf8KStA0Y9HTmnBT-61" value="" style="endArrow=none;html=1;rounded=0;fillColor=#f5f5f5;strokeColor=#CCCCCC;opacity=60;" edge="1" parent="iTxVIf8KStA0Y9HTmnBT-49">
          <mxGeometry width="50" height="50" relative="1" as="geometry">
            <mxPoint x="80.00488372093014" y="50" as="sourcePoint" />
            <mxPoint y="50" as="targetPoint" />
          </mxGeometry>
        </mxCell>
        <mxCell id="iTxVIf8KStA0Y9HTmnBT-62" value="" style="endArrow=none;html=1;rounded=0;fillColor=#f5f5f5;strokeColor=#CCCCCC;opacity=60;" edge="1" parent="iTxVIf8KStA0Y9HTmnBT-49">
          <mxGeometry width="50" height="50" relative="1" as="geometry">
            <mxPoint x="80.00488372093014" y="60" as="sourcePoint" />
            <mxPoint y="60" as="targetPoint" />
          </mxGeometry>
        </mxCell>
        <mxCell id="iTxVIf8KStA0Y9HTmnBT-63" value="" style="endArrow=none;html=1;rounded=0;fillColor=#f5f5f5;strokeColor=#CCCCCC;opacity=60;" edge="1" parent="iTxVIf8KStA0Y9HTmnBT-49">
          <mxGeometry width="50" height="50" relative="1" as="geometry">
            <mxPoint x="80.00488372093014" y="70" as="sourcePoint" />
            <mxPoint y="70" as="targetPoint" />
          </mxGeometry>
        </mxCell>
        <mxCell id="iTxVIf8KStA0Y9HTmnBT-66" value="" style="whiteSpace=wrap;html=1;aspect=fixed;fillColor=#f8cecc;strokeColor=#b85450;opacity=30;" vertex="1" parent="iTxVIf8KStA0Y9HTmnBT-49">
          <mxGeometry x="20.00488372093014" y="60" width="10" height="10" as="geometry" />
        </mxCell>
        <mxCell id="iTxVIf8KStA0Y9HTmnBT-68" value="" style="whiteSpace=wrap;html=1;aspect=fixed;fillColor=#f8cecc;strokeColor=#b85450;opacity=30;" vertex="1" parent="iTxVIf8KStA0Y9HTmnBT-49">
          <mxGeometry x="20.00488372093014" y="50" width="10" height="10" as="geometry" />
        </mxCell>
        <mxCell id="iTxVIf8KStA0Y9HTmnBT-78" value="" style="whiteSpace=wrap;html=1;aspect=fixed;fillColor=#f8cecc;strokeColor=#b85450;opacity=30;" vertex="1" parent="iTxVIf8KStA0Y9HTmnBT-49">
          <mxGeometry x="10.004883720930138" y="60" width="10" height="10" as="geometry" />
        </mxCell>
        <mxCell id="iTxVIf8KStA0Y9HTmnBT-64" value="" style="whiteSpace=wrap;html=1;aspect=fixed;fillColor=#f8cecc;strokeColor=#b85450;opacity=30;" vertex="1" parent="1">
          <mxGeometry x="170" y="300" width="10" height="10" as="geometry" />
        </mxCell>
        <mxCell id="iTxVIf8KStA0Y9HTmnBT-65" value="" style="whiteSpace=wrap;html=1;aspect=fixed;fillColor=#f8cecc;strokeColor=#b85450;opacity=30;" vertex="1" parent="1">
          <mxGeometry x="170" y="290" width="10" height="10" as="geometry" />
        </mxCell>
        <mxCell id="iTxVIf8KStA0Y9HTmnBT-67" value="" style="whiteSpace=wrap;html=1;aspect=fixed;fillColor=#f8cecc;strokeColor=#b85450;opacity=30;" vertex="1" parent="1">
          <mxGeometry x="200" y="290" width="10" height="10" as="geometry" />
        </mxCell>
        <mxCell id="iTxVIf8KStA0Y9HTmnBT-69" value="" style="whiteSpace=wrap;html=1;aspect=fixed;fillColor=#f8cecc;strokeColor=#b85450;opacity=30;" vertex="1" parent="1">
          <mxGeometry x="190" y="280" width="10" height="10" as="geometry" />
        </mxCell>
        <mxCell id="iTxVIf8KStA0Y9HTmnBT-71" value="" style="whiteSpace=wrap;html=1;aspect=fixed;fillColor=#f8cecc;strokeColor=#b85450;opacity=30;" vertex="1" parent="1">
          <mxGeometry x="180" y="250" width="10" height="10" as="geometry" />
        </mxCell>
        <mxCell id="iTxVIf8KStA0Y9HTmnBT-72" value="" style="whiteSpace=wrap;html=1;aspect=fixed;fillColor=#f8cecc;strokeColor=#b85450;opacity=30;" vertex="1" parent="1">
          <mxGeometry x="180" y="290" width="10" height="10" as="geometry" />
        </mxCell>
        <mxCell id="iTxVIf8KStA0Y9HTmnBT-73" value="" style="whiteSpace=wrap;html=1;aspect=fixed;fillColor=#f8cecc;strokeColor=#b85450;opacity=30;" vertex="1" parent="1">
          <mxGeometry x="180" y="280" width="10" height="10" as="geometry" />
        </mxCell>
        <mxCell id="iTxVIf8KStA0Y9HTmnBT-74" value="" style="whiteSpace=wrap;html=1;aspect=fixed;fillColor=#f8cecc;strokeColor=#b85450;opacity=30;" vertex="1" parent="1">
          <mxGeometry x="200" y="270" width="10" height="10" as="geometry" />
        </mxCell>
        <mxCell id="iTxVIf8KStA0Y9HTmnBT-75" value="" style="whiteSpace=wrap;html=1;aspect=fixed;fillColor=#f8cecc;strokeColor=#b85450;opacity=30;" vertex="1" parent="1">
          <mxGeometry x="190" y="270" width="10" height="10" as="geometry" />
        </mxCell>
        <mxCell id="iTxVIf8KStA0Y9HTmnBT-77" value="" style="whiteSpace=wrap;html=1;aspect=fixed;fillColor=#f8cecc;strokeColor=#b85450;opacity=30;" vertex="1" parent="1">
          <mxGeometry x="180" y="270" width="10" height="10" as="geometry" />
        </mxCell>
        <mxCell id="iTxVIf8KStA0Y9HTmnBT-79" value="" style="whiteSpace=wrap;html=1;aspect=fixed;fillColor=#f8cecc;strokeColor=#b85450;opacity=30;" vertex="1" parent="1">
          <mxGeometry x="170" y="270" width="10" height="10" as="geometry" />
        </mxCell>
        <mxCell id="iTxVIf8KStA0Y9HTmnBT-80" value="" style="whiteSpace=wrap;html=1;aspect=fixed;fillColor=#f8cecc;strokeColor=#b85450;opacity=30;" vertex="1" parent="1">
          <mxGeometry x="180" y="260" width="10" height="10" as="geometry" />
        </mxCell>
        <mxCell id="iTxVIf8KStA0Y9HTmnBT-81" value="" style="whiteSpace=wrap;html=1;aspect=fixed;fillColor=#f8cecc;strokeColor=#b85450;opacity=30;" vertex="1" parent="1">
          <mxGeometry x="190" y="270" width="10" height="10" as="geometry" />
        </mxCell>
        <mxCell id="iTxVIf8KStA0Y9HTmnBT-82" value="" style="whiteSpace=wrap;html=1;aspect=fixed;fillColor=#f8cecc;strokeColor=#b85450;opacity=30;" vertex="1" parent="1">
          <mxGeometry x="190" y="260" width="10" height="10" as="geometry" />
        </mxCell>
        <mxCell id="iTxVIf8KStA0Y9HTmnBT-83" value="" style="whiteSpace=wrap;html=1;aspect=fixed;fillColor=#f8cecc;strokeColor=#b85450;opacity=30;" vertex="1" parent="1">
          <mxGeometry x="200" y="260" width="10" height="10" as="geometry" />
        </mxCell>
        <mxCell id="iTxVIf8KStA0Y9HTmnBT-84" value="" style="whiteSpace=wrap;html=1;aspect=fixed;fillColor=#f8cecc;strokeColor=#b85450;opacity=30;" vertex="1" parent="1">
          <mxGeometry x="200" y="280" width="10" height="10" as="geometry" />
        </mxCell>
        <mxCell id="iTxVIf8KStA0Y9HTmnBT-85" value="" style="whiteSpace=wrap;html=1;aspect=fixed;fillColor=#d5e8d4;strokeColor=#82b366;opacity=30;" vertex="1" parent="1">
          <mxGeometry x="210" y="260" width="10" height="10" as="geometry" />
        </mxCell>
        <mxCell id="iTxVIf8KStA0Y9HTmnBT-89" value="" style="whiteSpace=wrap;html=1;aspect=fixed;fillColor=#d5e8d4;strokeColor=#82b366;opacity=30;" vertex="1" parent="1">
          <mxGeometry x="220" y="270" width="10" height="10" as="geometry" />
        </mxCell>
        <mxCell id="iTxVIf8KStA0Y9HTmnBT-90" value="" style="whiteSpace=wrap;html=1;aspect=fixed;fillColor=#d5e8d4;strokeColor=#82b366;opacity=30;" vertex="1" parent="1">
          <mxGeometry x="230" y="280" width="10" height="10" as="geometry" />
        </mxCell>
        <mxCell id="iTxVIf8KStA0Y9HTmnBT-91" value="" style="whiteSpace=wrap;html=1;aspect=fixed;fillColor=#d5e8d4;strokeColor=#82b366;opacity=30;" vertex="1" parent="1">
          <mxGeometry x="240" y="290" width="10" height="10" as="geometry" />
        </mxCell>
        <mxCell id="iTxVIf8KStA0Y9HTmnBT-92" value="" style="whiteSpace=wrap;html=1;aspect=fixed;fillColor=#d5e8d4;strokeColor=#82b366;opacity=30;" vertex="1" parent="1">
          <mxGeometry x="220" y="280" width="10" height="10" as="geometry" />
        </mxCell>
        <mxCell id="iTxVIf8KStA0Y9HTmnBT-93" value="" style="whiteSpace=wrap;html=1;aspect=fixed;fillColor=#d5e8d4;strokeColor=#82b366;opacity=30;" vertex="1" parent="1">
          <mxGeometry x="210" y="290" width="10" height="10" as="geometry" />
        </mxCell>
        <mxCell id="iTxVIf8KStA0Y9HTmnBT-94" value="" style="whiteSpace=wrap;html=1;aspect=fixed;fillColor=#d5e8d4;strokeColor=#82b366;opacity=30;" vertex="1" parent="1">
          <mxGeometry x="210" y="280" width="10" height="10" as="geometry" />
        </mxCell>
        <mxCell id="iTxVIf8KStA0Y9HTmnBT-95" value="" style="whiteSpace=wrap;html=1;aspect=fixed;fillColor=#d5e8d4;strokeColor=#82b366;opacity=30;" vertex="1" parent="1">
          <mxGeometry x="230" y="270" width="10" height="10" as="geometry" />
        </mxCell>
        <mxCell id="iTxVIf8KStA0Y9HTmnBT-96" value="" style="whiteSpace=wrap;html=1;aspect=fixed;fillColor=#d5e8d4;strokeColor=#82b366;opacity=30;" vertex="1" parent="1">
          <mxGeometry x="220" y="260" width="10" height="10" as="geometry" />
        </mxCell>
        <mxCell id="iTxVIf8KStA0Y9HTmnBT-97" value="" style="whiteSpace=wrap;html=1;aspect=fixed;fillColor=#d5e8d4;strokeColor=#82b366;opacity=30;" vertex="1" parent="1">
          <mxGeometry x="240" y="280" width="10" height="10" as="geometry" />
        </mxCell>
        <mxCell id="iTxVIf8KStA0Y9HTmnBT-98" value="" style="whiteSpace=wrap;html=1;aspect=fixed;fillColor=#d5e8d4;strokeColor=#82b366;opacity=30;" vertex="1" parent="1">
          <mxGeometry x="240" y="270" width="10" height="10" as="geometry" />
        </mxCell>
        <mxCell id="iTxVIf8KStA0Y9HTmnBT-99" value="" style="whiteSpace=wrap;html=1;aspect=fixed;fillColor=#d5e8d4;strokeColor=#82b366;opacity=30;" vertex="1" parent="1">
          <mxGeometry x="240" y="260" width="10" height="10" as="geometry" />
        </mxCell>
        <mxCell id="iTxVIf8KStA0Y9HTmnBT-100" value="" style="whiteSpace=wrap;html=1;aspect=fixed;fillColor=#d5e8d4;strokeColor=#82b366;opacity=30;" vertex="1" parent="1">
          <mxGeometry x="230" y="260" width="10" height="10" as="geometry" />
        </mxCell>
        <mxCell id="iTxVIf8KStA0Y9HTmnBT-103" value="" style="whiteSpace=wrap;html=1;aspect=fixed;" vertex="1" parent="1">
          <mxGeometry x="80" y="330" width="80" height="80" as="geometry" />
        </mxCell>
        <mxCell id="iTxVIf8KStA0Y9HTmnBT-104" value="" style="shape=umlActor;verticalLabelPosition=bottom;verticalAlign=top;html=1;outlineConnect=0;" vertex="1" parent="1">
          <mxGeometry x="85" y="345" width="20" height="50" as="geometry" />
        </mxCell>
        <mxCell id="iTxVIf8KStA0Y9HTmnBT-105" value="" style="shape=umlActor;verticalLabelPosition=bottom;verticalAlign=top;html=1;outlineConnect=0;" vertex="1" parent="1">
          <mxGeometry x="100" y="350" width="20" height="40" as="geometry" />
        </mxCell>
        <mxCell id="iTxVIf8KStA0Y9HTmnBT-106" value="" style="verticalLabelPosition=bottom;outlineConnect=0;align=center;dashed=0;html=1;verticalAlign=top;shape=mxgraph.pid.misc.tank_car,_tank_wagon;" vertex="1" parent="1">
          <mxGeometry x="120" y="357.5" width="40" height="25" as="geometry" />
        </mxCell>
        <mxCell id="iTxVIf8KStA0Y9HTmnBT-123" value="" style="rounded=0;whiteSpace=wrap;html=1;fillColor=none;strokeColor=#b85450;" vertex="1" parent="1">
          <mxGeometry x="100" y="350" width="20" height="40" as="geometry" />
        </mxCell>
        <mxCell id="iTxVIf8KStA0Y9HTmnBT-124" value="" style="rounded=0;whiteSpace=wrap;html=1;fillColor=none;strokeColor=#b85450;" vertex="1" parent="1">
          <mxGeometry x="83" y="340" width="20" height="50" as="geometry" />
        </mxCell>
        <mxCell id="iTxVIf8KStA0Y9HTmnBT-125" value="" style="rounded=0;whiteSpace=wrap;html=1;fillColor=none;strokeColor=#b85450;" vertex="1" parent="1">
          <mxGeometry x="80" y="350" width="30" height="45" as="geometry" />
        </mxCell>
        <mxCell id="iTxVIf8KStA0Y9HTmnBT-126" value="" style="whiteSpace=wrap;html=1;aspect=fixed;fillColor=#d5e8d4;strokeColor=#82b366;opacity=30;" vertex="1" parent="1">
          <mxGeometry x="210" y="270" width="10" height="10" as="geometry" />
        </mxCell>
        <mxCell id="iTxVIf8KStA0Y9HTmnBT-127" value="" style="rounded=0;whiteSpace=wrap;html=1;fillColor=none;strokeColor=#82b366;" vertex="1" parent="1">
          <mxGeometry x="125" y="353.75" width="35" height="26.25" as="geometry" />
        </mxCell>
        <mxCell id="iTxVIf8KStA0Y9HTmnBT-128" value="" style="rounded=0;whiteSpace=wrap;html=1;fillColor=none;strokeColor=#82b366;" vertex="1" parent="1">
          <mxGeometry x="120" y="357.5" width="40" height="26.25" as="geometry" />
        </mxCell>
        <mxCell id="iTxVIf8KStA0Y9HTmnBT-129" value="" style="rounded=0;whiteSpace=wrap;html=1;fillColor=none;strokeColor=#b85450;" vertex="1" parent="1">
          <mxGeometry x="85" y="345" width="20" height="55" as="geometry" />
        </mxCell>
        <mxCell id="iTxVIf8KStA0Y9HTmnBT-130" value="" style="whiteSpace=wrap;html=1;aspect=fixed;" vertex="1" parent="1">
          <mxGeometry x="170" y="330" width="80" height="80" as="geometry" />
        </mxCell>
        <mxCell id="iTxVIf8KStA0Y9HTmnBT-131" value="" style="shape=umlActor;verticalLabelPosition=bottom;verticalAlign=top;html=1;outlineConnect=0;" vertex="1" parent="1">
          <mxGeometry x="175" y="345" width="20" height="50" as="geometry" />
        </mxCell>
        <mxCell id="iTxVIf8KStA0Y9HTmnBT-132" value="" style="shape=umlActor;verticalLabelPosition=bottom;verticalAlign=top;html=1;outlineConnect=0;" vertex="1" parent="1">
          <mxGeometry x="190" y="350" width="20" height="40" as="geometry" />
        </mxCell>
        <mxCell id="iTxVIf8KStA0Y9HTmnBT-133" value="" style="verticalLabelPosition=bottom;outlineConnect=0;align=center;dashed=0;html=1;verticalAlign=top;shape=mxgraph.pid.misc.tank_car,_tank_wagon;" vertex="1" parent="1">
          <mxGeometry x="210" y="357.5" width="40" height="25" as="geometry" />
        </mxCell>
        <mxCell id="iTxVIf8KStA0Y9HTmnBT-134" value="" style="rounded=0;whiteSpace=wrap;html=1;fillColor=none;strokeColor=#b85450;" vertex="1" parent="1">
          <mxGeometry x="190" y="350" width="20" height="40" as="geometry" />
        </mxCell>
        <mxCell id="iTxVIf8KStA0Y9HTmnBT-138" value="" style="rounded=0;whiteSpace=wrap;html=1;fillColor=none;strokeColor=#82b366;" vertex="1" parent="1">
          <mxGeometry x="210" y="357.5" width="40" height="26.25" as="geometry" />
        </mxCell>
        <mxCell id="iTxVIf8KStA0Y9HTmnBT-139" value="" style="rounded=0;whiteSpace=wrap;html=1;fillColor=none;strokeColor=#b85450;" vertex="1" parent="1">
          <mxGeometry x="175" y="345" width="20" height="50" as="geometry" />
        </mxCell>
      </root>
    </mxGraphModel>
  </diagram>
</mxfile>
